<svg width="40" height="40" viewBox="0 0 40 40" fill="none" xmlns="http://www.w3.org/2000/svg">
<g clip-path="url(#clip0)">
<path d="M39.4141 38.8281H26.0522V33.2784C26.3874 33.3722 26.7402 33.4234 27.105 33.4234H36.0883C38.2452 33.4234 39.9999 31.6687 39.9999 29.5117C39.9999 29.1881 39.7376 28.9258 39.414 28.9258H37.7974L33.1947 20.3982C33.66 19.968 33.952 19.3531 33.952 18.6712C33.952 17.5755 33.1987 16.6522 32.1826 16.3913V6.95687H33.6374V7.28422C33.6374 8.0418 34.8093 8.0418 34.8093 7.28422V6.95687H37.6998C39.717 6.95687 39.7199 3.81414 37.6998 3.81414H34.8093V3.225C34.8093 2.46742 33.6374 2.46742 33.6374 3.225V3.81422H32.1826V3.225C32.1826 2.46742 31.0107 2.46742 31.0107 3.225V3.81422H26.1701V2.58461C26.1701 1.43227 25.2326 0.494766 24.0802 0.494766C23.6026 0.494766 23.1621 0.656172 22.8098 0.926875C22.4343 0.368359 21.7963 0 21.0738 0C20.3513 0 19.7134 0.368359 19.3379 0.926953C18.9855 0.65625 18.5451 0.494844 18.0674 0.494844C17.2818 0.494844 16.5963 0.930781 16.2394 1.57328C15.9037 1.3432 15.4979 1.20828 15.061 1.20828C13.9087 1.20828 12.9712 2.14578 12.9712 3.29813V3.81414H8.9893V3.225C8.9893 2.46742 7.81742 2.46742 7.81742 3.225V3.81422H6.36258V3.225C6.36258 2.46742 5.1907 2.46742 5.1907 3.225V3.81422H2.30016C0.283047 3.81422 0.280078 6.95695 2.30016 6.95695H5.1907V7.2843C5.1907 8.04187 6.36258 8.04187 6.36258 7.2843V6.95695H7.81742V16.3913C6.80117 16.6522 6.04797 17.5754 6.04797 18.6712C6.04797 19.3531 6.34 19.968 6.80539 20.3983L2.2025 28.9258H0.585938C0.262344 28.9258 0 29.1881 0 29.5117C0 31.6686 1.75477 33.4234 3.91164 33.4234H12.8949C13.2597 33.4234 13.6125 33.3721 13.9477 33.2783V38.8281H0.585938C0.262344 38.8281 0 39.0905 0 39.4141C0 39.7377 0.262344 40 0.585938 40H39.4141C39.7377 40 40 39.7377 40 39.4141C40 39.0905 39.7377 38.8281 39.4141 38.8281ZM36.4658 28.9258H35.2876C34.964 28.9258 34.7016 29.1881 34.7016 29.5117C34.7016 29.8353 34.964 30.0977 35.2876 30.0977H37.4465C37.4471 30.0977 37.4477 30.0978 37.4484 30.0978C37.4491 30.0978 37.4498 30.0977 37.4505 30.0977H38.765C38.496 31.3279 37.398 32.2515 36.0883 32.2515H27.105C25.7953 32.2515 24.6973 31.3278 24.4283 30.0976H25.7423C25.7432 30.0976 25.744 30.0977 25.7448 30.0977C25.7456 30.0977 25.7463 30.0976 25.7471 30.0976H32.1684V28.9257H26.7274L31.0295 20.9553C31.4075 21.0479 31.7855 21.0479 32.1637 20.9553L36.4658 28.9258ZM15.1197 21.0316H24.8804V23.7341H15.1197V21.0316ZM32.7802 18.6711C32.7802 19.3227 32.2493 19.8529 31.5967 19.8529C30.9441 19.8529 30.4131 19.3227 30.4131 18.6711C30.4131 18.0195 30.9441 17.4893 31.5967 17.4893C32.2494 17.4893 32.7802 18.0195 32.7802 18.6711ZM31.0108 16.3912C29.9945 16.6521 29.2412 17.5753 29.2412 18.6711C29.2412 19.353 29.5333 19.9679 29.9987 20.3982L26.0523 27.7097V20.4457C26.0523 20.1221 25.7899 19.8598 25.4663 19.8598H24.9525C24.9021 18.6992 25.2751 17.5734 26.1057 16.7438C27.9624 14.8893 29.5205 13.0191 29.5205 10.2316V7.87055C29.5205 7.54305 29.4445 7.23305 29.3095 6.95695H31.0109V16.3912H31.0108ZM37.6998 4.98609C38.2163 4.98609 38.2163 5.78508 37.6998 5.78508H34.8093V4.98609H37.6998ZM33.6374 4.98609V5.78508H32.1826V4.98609H33.6374ZM31.0108 4.98609V5.78508L26.1702 5.78258V4.98609H31.0108ZM24.0802 1.66664C24.5864 1.66664 24.9982 2.07844 24.9982 2.58461V5.7825H23.1637V2.55531C23.1794 2.06273 23.584 1.66664 24.0802 1.66664ZM21.0738 1.17188C21.58 1.17188 21.9918 1.58305 21.9918 2.08836L21.9903 5.80633C21.5045 5.90961 21.139 6.34133 21.139 6.85711C21.139 7.41602 21.2885 7.94039 21.5486 8.39383C20.9474 8.7568 20.1559 8.31156 20.1559 7.60977V2.08836C20.1559 1.58305 20.5677 1.17188 21.0738 1.17188ZM18.0674 1.66664C18.5637 1.66664 18.9683 2.06273 18.9839 2.55523V7.22203C18.9682 7.71453 18.5637 8.1107 18.0674 8.1107C17.5613 8.1107 17.1495 7.69891 17.1495 7.19273V2.58461C17.1495 2.07844 17.5613 1.66664 18.0674 1.66664ZM14.143 3.29813C14.143 2.79195 14.5548 2.38016 15.061 2.38016C15.5573 2.38016 15.9619 2.77625 15.9775 3.26883V6.50867C15.9618 7.00117 15.5573 7.39734 15.061 7.39734C14.5548 7.39734 14.143 6.98555 14.143 6.47937V3.29813ZM12.9712 4.98609V5.78508H8.9893V4.98609H12.9712ZM2.30016 5.785C1.78375 5.785 1.78375 4.98602 2.30016 4.98602H5.1907V5.785H2.30016ZM6.36258 5.785V4.98609H7.81742V5.78508H6.36258V5.785ZM12.9712 6.95687V9.69398C12.9712 10.0176 13.2335 10.2799 13.5571 10.2799C13.8807 10.2799 14.143 10.0176 14.143 9.69398V8.35617C14.4203 8.49234 14.7319 8.56914 15.061 8.56914C15.4979 8.56914 15.9037 8.43422 16.2394 8.20414C16.5963 8.84664 17.2817 9.28258 18.0674 9.28258C18.5615 9.28258 19.0157 9.10992 19.3738 8.82219C19.7533 9.35188 20.3736 9.69805 21.0738 9.69805C21.5264 9.69805 21.9613 9.55164 22.3181 9.28727C22.8477 9.70695 23.5166 9.95852 24.2435 9.95852H25.1811V9.97141C22.6243 10.2627 20.6317 12.4372 20.6317 15.0678C20.6317 15.3914 20.8941 15.6537 21.2177 15.6537C21.5413 15.6537 21.8036 15.3914 21.8036 15.0678C21.8036 12.8855 23.5816 11.1101 25.767 11.1101C26.0906 11.1101 26.353 10.8477 26.353 10.5241V9.37258C26.353 9.04898 26.0906 8.78664 25.767 8.78664H24.2435C23.2105 8.78664 22.3642 7.97336 22.3133 6.95437C24.0355 6.95437 25.7575 6.95687 27.4796 6.95687C27.963 6.98258 28.3486 7.38187 28.3486 7.87047V10.2316C28.3486 12.7002 26.9066 14.2873 25.2775 15.9145C24.2145 16.9761 23.7665 18.3837 23.7805 19.8598H16.1733C16.2164 18.5535 15.7799 17.3417 15.0627 16.262C14.461 15.3257 14.143 14.2429 14.143 13.1302C14.143 12.8066 13.8806 12.5443 13.557 12.5443C13.2334 12.5443 12.9711 12.8066 12.9711 13.1302C12.9711 14.4696 13.3544 15.773 14.0795 16.8996C14.6623 17.8016 15.046 18.7718 15.0014 19.8598H14.5337C14.2101 19.8598 13.9477 20.1221 13.9477 20.4457V27.7097L10.0013 20.3982C10.4667 19.968 10.7588 19.353 10.7588 18.6711C10.7588 17.5754 10.0055 16.6521 8.98922 16.3912V6.95687H12.9712ZM8.40336 17.4893C9.05602 17.4893 9.58695 18.0195 9.58695 18.6711C9.58695 19.3227 9.05602 19.8529 8.40336 19.8529C7.7507 19.8529 7.21984 19.3227 7.21984 18.6711C7.21984 18.0195 7.7507 17.4893 8.40336 17.4893ZM7.83625 20.9554C8.2143 21.0479 8.59234 21.0479 8.97039 20.9554L13.2725 28.9259H3.53422L7.83625 20.9554ZM3.91164 32.2516C2.60195 32.2516 1.50391 31.3279 1.23492 30.0977H2.54961C2.55023 30.0977 2.55086 30.0978 2.55148 30.0978C2.55203 30.0978 2.55266 30.0977 2.5532 30.0977H14.2534C14.2539 30.0977 14.2545 30.0978 14.2551 30.0978C14.2557 30.0978 14.2563 30.0977 14.257 30.0977H15.5716C15.3027 31.328 14.2046 32.2516 12.8949 32.2516H3.91164ZM15.1197 38.8281V32.7266C16.138 32.0197 16.8066 30.8426 16.8066 29.5117C16.8066 29.1881 16.5443 28.9258 16.2207 28.9258H15.1197V24.9059H24.8804V28.9258H23.7794C23.4558 28.9258 23.1934 29.1881 23.1934 29.5117C23.1934 30.8426 23.862 32.0197 24.8804 32.7266V38.8281H15.1197Z" fill="#BB4445"/>
</g>
<defs>
<clipPath id="clip0">
<rect width="40" height="40" fill="white"/>
</clipPath>
</defs>
</svg>
