<svg width="40" height="40" viewBox="0 0 40 40" fill="none" xmlns="http://www.w3.org/2000/svg">
<path d="M38.8593 27.1459H35.7031V20.3305C36.8127 20.7449 38.0695 19.8629 38.0469 18.673V10.5078C38.0469 9.15086 36.9429 8.04688 35.5859 8.04688H35.4688V3.6332C35.4688 1.62984 33.8389 0 31.8356 0H31.3676C29.3642 0 27.7344 1.62984 27.7344 3.6332V8.04688H27.6172C26.2602 8.04688 25.1562 9.15086 25.1562 10.5078V18.673C25.1335 19.8629 26.3905 20.7449 27.5 20.3305V27.1459H24.3438C23.7148 27.1459 23.2031 27.6577 23.2031 28.2866V28.6272C23.2031 30.0074 24.326 31.1303 25.7063 31.1303H29.5425C28.4113 32.059 26.4614 32.9973 23.1084 33.3649C21.6389 31.209 18.3549 31.2121 16.889 33.3688C13.5175 33.0041 11.5657 32.0629 10.4381 31.1304H14.2938C15.6741 31.1304 16.797 30.0075 16.797 28.6273V28.2867C16.797 27.6577 16.2852 27.146 15.6562 27.146H12.4866V26.7326C12.4867 26.7272 12.4868 26.7218 12.4868 26.7164V20.3305C13.5963 20.7448 14.853 19.8627 14.8303 18.673V10.5078C14.8303 9.15086 13.7263 8.04688 12.3694 8.04688H10.143V7.45953C10.8541 6.92445 11.3148 6.07367 11.3148 5.11719V4.40406C11.8552 4.25008 12.2521 3.75195 12.2521 3.16281V2.77055C12.2521 1.24281 11.0093 0 9.48172 0H7.2882C5.76055 0 4.51773 1.24281 4.51773 2.77047V3.16273C4.51773 3.75203 4.91484 4.25031 5.45547 4.40414V5.11719C5.45547 6.07367 5.91617 6.92445 6.62734 7.45953V8.04688H4.40055C3.04359 8.04688 1.93961 9.15086 1.93961 10.5078V14.3662C1.96648 15.142 3.08492 15.1414 3.11148 14.3662V13.9062H4.28336V18.673C4.25578 19.4487 3.13883 19.4482 3.11148 18.673V17.0697C3.08461 16.2938 1.96617 16.2945 1.93961 17.0697V18.673C1.91688 19.863 3.17414 20.745 4.28359 20.3304V26.3766C4.28344 26.3857 4.28336 26.3947 4.28336 26.4038V27.146H1.1407C0.511719 27.1459 0 27.6577 0 28.2866V28.6271C0 30.0073 1.12289 31.1302 2.50313 31.1302H8.78609C9.81883 32.3892 11.9594 33.9335 16.357 34.4863C16.1726 35.1175 16.1623 35.8438 16.3317 36.4844H13.9062C13.1524 36.4844 12.5391 37.0977 12.5391 37.8516V39.4141C12.5391 39.7377 12.8014 40 13.125 40H20.4868C21.2627 39.9731 21.262 38.8547 20.4868 38.8281H13.7109V37.8516C13.7109 37.7438 13.7986 37.6562 13.9062 37.6562H26.0938C26.2014 37.6562 26.2891 37.7438 26.2891 37.8516V38.8281H23.2031C22.4273 38.855 22.4279 39.9734 23.2031 40H26.875C27.1986 40 27.4609 39.7377 27.4609 39.4141V37.8516C27.4609 37.0977 26.8476 36.4844 26.0938 36.4844H23.6668C23.838 35.8371 23.8277 35.1165 23.6417 34.4818C28.0222 33.9247 30.1641 32.3835 31.2009 31.1303H33.7978C34.5737 31.1034 34.573 29.985 33.7978 29.9584H25.7063C24.9722 29.9584 24.375 29.3612 24.375 28.6272V28.3178H38.8281V28.6272C38.8281 29.3612 38.2309 29.9584 37.4969 29.9584H36.5559C35.78 29.9853 35.7806 31.1037 36.5559 31.1303H37.4969C38.8771 31.1303 40 30.0074 40 28.6272V28.2866C40 27.6577 39.4883 27.1459 38.8593 27.1459ZM7.79898 27.1459V26.7325C7.79914 26.7271 7.79922 26.7217 7.79922 26.7163V19.4538C7.79289 18.9395 8.44055 18.6717 8.79898 19.0386C8.91 19.15 8.97109 19.2974 8.97109 19.4538V26.3765C8.97094 26.3855 8.97086 26.3945 8.97086 26.4037V27.1459H7.79898V27.1459ZM5.45547 16.5242H11.3146V18.673C11.3146 18.6821 11.3147 18.6912 11.3148 18.7002V24.7465C10.9519 24.6134 10.5059 24.6134 10.143 24.7463V19.4539C10.143 18.9852 9.96047 18.5441 9.62766 18.21C8.53195 17.1084 6.62406 17.9001 6.62734 19.4539V24.7464C6.26438 24.6134 5.81844 24.6133 5.45547 24.7463V16.5242ZM5.45523 26.7325C5.45539 26.7271 5.45547 26.7217 5.45547 26.7163V26.3876C5.50203 25.6237 6.60117 25.638 6.62711 26.4037V27.1459H5.45523V26.7325ZM10.1427 26.7325C10.1429 26.7271 10.143 26.7217 10.143 26.7163V26.3876C10.1895 25.6237 11.2887 25.638 11.3146 26.4037V27.1459H10.1427V26.7325ZM13.0724 19.259C12.7547 19.259 12.4953 19.0048 12.4867 18.6891V13.9062H13.6584V18.673C13.6584 18.9961 13.3955 19.259 13.0724 19.259ZM13.6584 10.5078V12.7344H12.4867V9.22406C13.1427 9.28352 13.6584 9.83656 13.6584 10.5078ZM9.28102 6.62914C9.26945 6.63539 9.25805 6.64195 9.24695 6.64891C8.74492 6.94742 8.02531 6.94742 7.52336 6.64891C7.51227 6.64195 7.50086 6.63539 7.4893 6.62914C6.97359 6.32242 6.62734 5.75945 6.62734 5.11719V4.45312H10.143V5.11719C10.143 5.75945 9.79672 6.32242 9.28102 6.62914ZM5.68961 2.77047C5.68961 1.88898 6.40672 1.17188 7.2882 1.17188H9.48172C10.3631 1.17188 11.0802 1.88898 11.0802 2.77047V3.16273C11.0802 3.22805 11.0271 3.28125 10.9617 3.28125H5.80813C5.74281 3.28125 5.68961 3.22805 5.68961 3.16273V2.77047ZM8.38516 8.04688C8.58578 8.04688 8.78172 8.02656 8.97109 7.98797V9.02344C8.94352 9.79914 7.82656 9.79859 7.79922 9.02344V7.98797C7.98859 8.02656 8.18453 8.04688 8.38516 8.04688ZM5.45547 9.21875H6.63813C6.9232 11.2909 9.84789 11.2894 10.1321 9.21875H11.3145V15.3523H5.45547V9.21875ZM3.11148 12.7344V10.5078C3.11148 9.83648 3.62727 9.28336 4.28336 9.22398V12.7344H3.11148ZM1.17188 28.6272V28.3178H15.625V28.6272C15.625 29.3612 15.0278 29.9584 14.2938 29.9584H2.50313C1.76906 29.9584 1.17188 29.3612 1.17188 28.6272ZM17.5622 36.4844C16.8784 34.8094 18.187 32.8856 20 32.9123C21.8127 32.8855 23.1218 34.8098 22.4378 36.4844H17.5622ZM33.3594 4.45312V5.11719C33.3594 5.75945 33.0131 6.32242 32.4974 6.62914C32.4859 6.63539 32.4745 6.64195 32.4634 6.64891C31.9613 6.94742 31.2417 6.94742 30.7398 6.64891C30.7287 6.64195 30.7173 6.63539 30.7057 6.62914C30.19 6.32242 29.8438 5.75945 29.8438 5.11719V4.45312H33.3594ZM29.8545 9.21875C30.1396 11.2909 33.0643 11.2894 33.3485 9.21875H34.5312V15.3523H28.6719V9.21875H29.8545ZM31.6016 8.04688C31.8022 8.04688 31.9981 8.02656 32.1875 7.98797V9.02344C32.1599 9.79914 31.043 9.79859 31.0156 9.02344V7.98797C31.205 8.02656 31.4009 8.04688 31.6016 8.04688ZM33.3594 8.04688V7.45953C33.7677 7.15227 34.0935 6.74094 34.2969 6.26523V8.04688H33.3594ZM28.9062 6.26523C29.1096 6.74094 29.4354 7.15227 29.8438 7.45953V8.04688H28.9062V6.26523ZM28.6719 16.5246H34.5312V21.4852H32.7734C32.7694 21.4852 32.7654 21.4852 32.7613 21.4853H30.4418C30.4377 21.4852 30.4338 21.4852 30.4297 21.4852H28.6719V16.5246ZM28.6719 22.6572H29.8438V24.7463C29.4808 24.6134 29.0348 24.6134 28.6719 24.7463V22.6572ZM31.0156 22.6572H32.1875V27.1459H31.0156V22.6572ZM33.3594 22.6572H34.5312V24.7463C34.1683 24.6134 33.7223 24.6134 33.3594 24.7463V22.6572ZM36.2891 19.259C35.9659 19.259 35.7031 18.9962 35.7031 18.673V13.9062H36.875V18.673C36.875 18.9961 36.6122 19.259 36.2891 19.259ZM36.875 10.5078V12.7344H35.7031V9.22398C36.3592 9.28336 36.875 9.83648 36.875 10.5078ZM31.3675 1.17188H31.8355C33.0733 1.17188 34.1005 2.09016 34.2717 3.28125H28.9313C29.1026 2.09016 30.1298 1.17188 31.3675 1.17188ZM27.5 9.22398V12.7344H26.3281V10.5078C26.3281 9.83648 26.8439 9.28336 27.5 9.22398ZM26.9141 19.259C26.5909 19.259 26.3281 18.9962 26.3281 18.673V13.9062H27.5V18.673C27.5 18.9961 27.2372 19.259 26.9141 19.259ZM28.6719 27.1459V26.4037C28.6995 25.628 29.8164 25.6286 29.8438 26.4037V27.1459H28.6719ZM33.3594 27.1459V26.4037C33.387 25.628 34.5039 25.6286 34.5312 26.4037V27.1459H33.3594Z" fill="#BB4445"/>
</svg>
