<svg width="40" height="40" viewBox="0 0 40 40" fill="none" xmlns="http://www.w3.org/2000/svg">
<path d="M37.0703 24.6591V23.3367C37.7523 23.0948 38.2422 22.4435 38.2422 21.6797C38.2422 20.9159 37.7523 20.2645 37.0703 20.0227V11.618C37.7523 11.3761 38.2422 10.7248 38.2422 9.96094C38.2422 9.19711 37.7523 8.54578 37.0703 8.30391V6.98148C38.7308 6.70164 40 5.25445 40 3.51562C40 1.57711 38.4229 0 36.4844 0H21.25C19.3115 0 17.7344 1.57711 17.7344 3.51562C17.7344 5.25445 19.0036 6.70164 20.6641 6.98148V8.30352C19.982 8.54531 19.4922 9.19703 19.4922 9.96094C19.4922 10.7248 19.9821 11.3761 20.6641 11.618V12.8243L5.19875 11.1608C5.02539 11.1423 4.85336 11.1328 4.6875 11.1328C2.10281 11.1328 0 13.2356 0 15.8203C0 18.405 2.10281 20.5078 4.6875 20.5078C4.85445 20.5078 5.0268 20.4983 5.19984 20.4795C5.25469 20.4736 20.6641 18.8163 20.6641 18.8163V20.0227C19.9821 20.2646 19.4922 20.9159 19.4922 21.6798C19.4922 22.4436 19.9821 23.0949 20.6641 23.3368V24.6592C19.0036 24.939 17.7344 26.3862 17.7344 28.125C17.7344 30.0635 19.3115 31.6406 21.25 31.6406H36.4844C38.4229 31.6406 40 30.0635 40 28.125C40 26.3862 38.7308 24.939 37.0703 24.6591ZM35.8984 23.4375V24.6094H21.8359V23.4375H35.8984ZM35.8984 11.7188V19.9219H21.8359V11.7188H35.8984ZM18.9062 3.51562C18.9062 2.22328 19.9577 1.17188 21.25 1.17188H36.4844C37.7767 1.17188 38.8281 2.22328 38.8281 3.51562C38.8281 4.80797 37.7767 5.85938 36.4844 5.85938H21.25C19.9577 5.85938 18.9062 4.80797 18.9062 3.51562ZM21.25 9.375C21.5737 9.375 21.8359 9.11266 21.8359 8.78906V7.03125H35.8984V8.20312H23.5938C23.2701 8.20312 23.0078 8.46547 23.0078 8.78906C23.0078 9.11266 23.2701 9.375 23.5938 9.375H36.4844C36.8075 9.375 37.0703 9.63781 37.0703 9.96094C37.0703 10.2841 36.8075 10.5469 36.4844 10.5469H21.25C20.9269 10.5469 20.6641 10.2841 20.6641 9.96094C20.6641 9.63781 20.9269 9.375 21.25 9.375ZM5.07586 19.3141C4.94195 19.3287 4.81227 19.3359 4.6875 19.3359C2.74898 19.3359 1.17188 17.7588 1.17188 15.8203C1.17188 13.8818 2.74898 12.3047 4.6875 12.3047C4.81187 12.3047 4.94195 12.3119 5.07367 12.3259L20.6641 14.003V17.6377C17.9072 17.9342 5.18406 19.3027 5.07586 19.3141ZM21.25 21.0938H36.4844C36.8075 21.0938 37.0703 21.3566 37.0703 21.6797C37.0703 22.0028 36.8075 22.2656 36.4844 22.2656H21.25C20.9269 22.2656 20.6641 22.0028 20.6641 21.6797C20.6641 21.3566 20.9269 21.0938 21.25 21.0938ZM36.4844 30.4688H21.25C19.9577 30.4688 18.9062 29.4173 18.9062 28.125C18.9062 26.8327 19.9577 25.7812 21.25 25.7812H36.4844C37.7767 25.7812 38.8281 26.8327 38.8281 28.125C38.8281 29.4173 37.7767 30.4688 36.4844 30.4688Z" fill="#BB4445"/>
<path d="M33.5547 33H14.8047C11.2507 33 8.35938 35.8913 8.35938 39.4453C8.35938 39.7689 8.62172 40.0312 8.94531 40.0312H39.4141C39.7377 40.0312 40 39.7689 40 39.4453C40 35.8913 37.1086 33 33.5547 33ZM9.56359 38.8594C9.85602 36.2263 12.0949 34.1719 14.8047 34.1719H33.5547C36.2645 34.1719 38.5034 36.2263 38.7958 38.8594H9.56359Z" fill="#BB4445"/>
</svg>
