<svg width="15" height="15" viewBox="0 0 15 15" fill="none" xmlns="http://www.w3.org/2000/svg">
<path d="M0.439453 15H8.4082C8.65093 15 8.84766 14.8033 8.84766 14.5605V14.0918C8.84766 13.6063 8.45421 13.2129 7.96875 13.2129V12.6875C7.96875 11.9918 7.40273 11.4258 6.70704 11.4258H2.14062C1.44493 11.4258 0.878906 11.9918 0.878906 12.6875V13.2129C0.393448 13.2129 0 13.6063 0 14.0918V14.5605C0 14.8032 0.196838 15 0.439453 15Z" fill="#BB4445"/>
<path d="M5.5 9.67786C5.79206 10.0655 6.3432 10.143 6.73081 9.85078C7.11854 9.55873 7.1959 9.00758 6.90385 8.61986L4.25912 5.11029C3.96695 4.72256 3.41592 4.6452 3.02831 4.93726C2.64058 5.22942 2.56311 5.78046 2.85527 6.16818L5.5 9.67786Z" fill="#BB4445"/>
<path d="M11.8173 4.91754C12.1094 5.30515 12.6605 5.38262 13.0482 5.09046C13.4358 4.7984 13.5133 4.24737 13.2211 3.85964L10.5764 0.350085C10.2843 -0.0376409 9.73319 -0.115117 9.34558 0.17705C8.95797 0.469218 8.8805 1.02025 9.17266 1.40798L11.8173 4.91754Z" fill="#BB4445"/>
<path d="M9.88943 7.47083C10.539 6.98136 11.0266 6.37357 11.3316 5.73361L8.2543 1.6499C7.55507 1.76675 6.83649 2.06784 6.18681 2.55742C5.53725 3.04688 5.04961 3.65468 4.74463 4.29452L7.82195 8.37846C8.52118 8.26161 9.23975 7.9604 9.88943 7.47083Z" fill="#BB4445"/>
<path d="M11.0761 7.58545C10.8715 7.79396 10.656 7.99389 10.4184 8.17299C10.1807 8.35198 9.92905 8.50407 9.67236 8.64334L10.2454 9.4038L11.6492 8.34603L11.0761 7.58545Z" fill="#BB4445"/>
<path d="M12.1783 9.04785L10.7744 10.1056L13.4192 13.6153C13.7113 14.003 14.2624 14.0804 14.65 13.7883C15.0377 13.4962 15.1151 12.9451 14.823 12.5574L12.1783 9.04785Z" fill="#BB4445"/>
</svg>
