<svg width="84" height="60" viewBox="0 0 84 60" fill="none" xmlns="http://www.w3.org/2000/svg">
<path d="M83.861 6.94981C78.4556 8.95754 73.668 12.3552 69.4981 17.1429C65.4826 21.9305 63.0888 27.1815 62.3166 32.8958C63.5521 34.4402 65.4826 35.9073 68.1081 37.2973C70.888 38.5328 73.1274 39.5367 74.8263 40.3089C74.9807 42.7799 74.4402 45.1737 73.2046 47.4904C71.9691 49.807 70.4247 51.8919 68.5714 53.7452C66.7181 55.5985 64.7104 57.1429 62.5483 58.3784C60.5406 59.4595 58.8417 60 57.4517 60C53.1274 59.5367 49.4981 58.0695 46.5637 55.5985C43.6293 52.973 42.1622 49.1892 42.1622 44.2471C42.1622 39.305 43.2432 34.4402 45.4054 29.6525C47.722 24.8649 50.6564 20.5405 54.2085 16.6795C57.9151 12.6641 62.0849 9.26641 66.7182 6.48649C71.3514 3.55212 76.0618 1.38996 80.8494 0L83.861 6.94981ZM41.6988 6.94981C36.2934 8.95754 31.5058 12.3552 27.3359 17.1429C23.3205 21.9305 20.9266 27.1815 20.1544 32.8958C21.39 34.4402 23.3205 35.9073 25.9459 37.2973C28.7259 38.5328 30.9653 39.5367 32.6641 40.3089C32.8185 42.7799 32.278 45.1737 31.0425 47.4904C29.807 49.807 28.2626 51.8919 26.4093 53.7452C24.556 55.5985 22.5483 57.1429 20.3861 58.3784C18.3784 59.4595 16.6795 60 15.2896 60C10.9653 59.5367 7.33591 58.0695 4.40155 55.5985C1.46718 52.973 0 49.1892 0 44.2471C0 39.305 1.08108 34.4402 3.24324 29.6525C5.55985 24.8649 8.49421 20.5405 12.0463 16.6795C15.7529 12.6641 19.9228 9.26641 24.556 6.48649C29.1892 3.55212 33.8996 1.38996 38.6873 0L41.6988 6.94981Z" fill="#BB4445"/>
</svg>
