<svg width="8.4666665" height="8.4666669" xmlns="http://www.w3.org/2000/svg">

 <g>
  <title>background</title>
  <rect fill="none" id="canvas_background" height="402" width="582" y="-1" x="-1"/>
 </g>
 <g>
  <title>Layer 1</title>
  <path clip-rule="nonzero" fill="#ffffff" fill-rule="nonzero" stroke-width="2" stroke-linecap="round" stroke-linejoin="round" stroke-miterlimit="4" stroke-dashoffset="0" id="rect996" d="m1.322917,0.247586a0.26461,0.26461 0 0 0 -0.264584,0.264583l0,7.408334a0.26461,0.26461 0 0 0 0.264584,0.264583l5.820833,0a0.26461,0.26461 0 0 0 0.264583,-0.264583l0,-5.55625a0.26461,0.26461 0 0 0 -0.077515,-0.187069l-1.852083,-1.852083a0.26461,0.26461 0 0 0 -0.187068,-0.077515l-3.96875,0zm0.264583,0.529167l3.440099,0l0,1.586984c-0.000563,0.146169 0.117377,0.265096 0.263552,0.265615l1.588016,0l0,5.026567l-5.291667,0l0,-6.879166zm3.969266,0.374655l0.94878,0.948777l-0.94878,0l0,-0.948777z"/>
  <path clip-rule="nonzero" fill="#ffffff" fill-rule="nonzero" stroke-width="0.529167" stroke-linecap="round" stroke-miterlimit="4" stroke-dashoffset="0" id="path1009" d="m2.88477,3.175655a0.26495,0.26495 0 0 0 0.02539,0.5293l2.64648,0a0.26465,0.26465 0 1 0 0,-0.5293l-2.64648,0a0.26461,0.26461 0 0 0 -0.02539,0z"/>
  <path clip-rule="nonzero" fill="#ffffff" fill-rule="nonzero" stroke-width="0.529167" stroke-linecap="round" stroke-miterlimit="4" stroke-dashoffset="0" id="path1011" d="m2.91016,4.761595a0.26465,0.26465 0 1 0 0,0.5293l2.64648,0a0.26465,0.26465 0 1 0 0,-0.5293l-2.64648,0z"/>
  <path clip-rule="nonzero" fill="#ffffff" fill-rule="nonzero" stroke-width="0.529167" stroke-linecap="round" stroke-miterlimit="4" stroke-dashoffset="0" id="path1013" d="m2.935649,6.366477a0.26465,0.26465 0 1 0 0,0.5293l2.64648,0a0.26465,0.26465 0 1 0 0,-0.5293l-2.64648,0z"/>
 </g>
</svg>